<svg width="570" height="113" viewBox="0 0 570 113" fill="none" xmlns="http://www.w3.org/2000/svg">
<path d="M43.0227 44.1136C42.7955 41.6136 41.7841 39.6705 39.9886 38.2841C38.2159 36.875 35.6818 36.1705 32.3864 36.1705C30.2045 36.1705 28.3864 36.4545 26.9318 37.0227C25.4773 37.5909 24.3864 38.375 23.6591 39.375C22.9318 40.3523 22.5568 41.4773 22.5341 42.75C22.4886 43.7955 22.6932 44.7159 23.1477 45.5114C23.625 46.3068 24.3068 47.0114 25.1932 47.625C26.1023 48.2159 27.1932 48.7386 28.4659 49.1932C29.7386 49.6477 31.1705 50.0455 32.7614 50.3864L38.7614 51.75C42.2159 52.5 45.2614 53.5 47.8977 54.75C50.5568 56 52.7841 57.4886 54.5795 59.2159C56.3977 60.9432 57.7727 62.9318 58.7045 65.1818C59.6364 67.4318 60.1136 69.9545 60.1364 72.75C60.1136 77.1591 59 80.9432 56.7955 84.1023C54.5909 87.2614 51.4205 89.6818 47.2841 91.3636C43.1705 93.0455 38.2045 93.8864 32.3864 93.8864C26.5455 93.8864 21.4545 93.0114 17.1136 91.2614C12.7727 89.5114 9.39773 86.8523 6.98864 83.2841C4.57955 79.7159 3.34091 75.2045 3.27273 69.75H19.4318C19.5682 72 20.1705 73.875 21.2386 75.375C22.3068 76.875 23.7727 78.0114 25.6364 78.7841C27.5227 79.5568 29.7045 79.9432 32.1818 79.9432C34.4545 79.9432 36.3864 79.6364 37.9773 79.0227C39.5909 78.4091 40.8295 77.5568 41.6932 76.4659C42.5568 75.375 43 74.125 43.0227 72.7159C43 71.3977 42.5909 70.2727 41.7955 69.3409C41 68.3864 39.7727 67.5682 38.1136 66.8864C36.4773 66.1818 34.3864 65.5341 31.8409 64.9432L24.5455 63.2386C18.5 61.8523 13.7386 59.6136 10.2614 56.5227C6.78409 53.4091 5.05682 49.2045 5.07955 43.9091C5.05682 39.5909 6.21591 35.8068 8.55682 32.5568C10.8977 29.3068 14.1364 26.7727 18.2727 24.9545C22.4091 23.1364 27.125 22.2273 32.4205 22.2273C37.8295 22.2273 42.5227 23.1477 46.5 24.9886C50.5 26.8068 53.6023 29.3636 55.8068 32.6591C58.0114 35.9545 59.1364 39.7727 59.1818 44.1136H43.0227ZM98.2159 40.6364V52.9091H65.1818V40.6364H98.2159ZM72.1023 28.0909H88.7727V76.5341C88.7727 77.5568 88.9318 78.3864 89.25 79.0227C89.5909 79.6364 90.0795 80.0795 90.7159 80.3523C91.3523 80.6023 92.1136 80.7273 93 80.7273C93.6364 80.7273 94.3068 80.6705 95.0114 80.5568C95.7386 80.4205 96.2841 80.3068 96.6477 80.2159L99.1705 92.25C98.375 92.4773 97.25 92.7614 95.7955 93.1023C94.3636 93.4432 92.6477 93.6591 90.6477 93.75C86.7386 93.9318 83.3864 93.4773 80.5909 92.3864C77.8182 91.2727 75.6932 89.5455 74.2159 87.2045C72.7614 84.8636 72.0568 81.9205 72.1023 78.375V28.0909ZM130.602 93.9886C125.102 93.9886 120.375 92.8636 116.42 90.6136C112.489 88.3409 109.455 85.1818 107.318 81.1364C105.205 77.0682 104.148 72.3523 104.148 66.9886C104.148 61.6023 105.205 56.8864 107.318 52.8409C109.455 48.7727 112.489 45.6136 116.42 43.3636C120.375 41.0909 125.102 39.9545 130.602 39.9545C136.102 39.9545 140.818 41.0909 144.75 43.3636C148.705 45.6136 151.739 48.7727 153.852 52.8409C155.989 56.8864 157.057 61.6023 157.057 66.9886C157.057 72.3523 155.989 77.0682 153.852 81.1364C151.739 85.1818 148.705 88.3409 144.75 90.6136C140.818 92.8636 136.102 93.9886 130.602 93.9886ZM130.705 81.4091C132.705 81.4091 134.398 80.7955 135.784 79.5682C137.17 78.3409 138.227 76.6364 138.955 74.4545C139.705 72.2727 140.08 69.75 140.08 66.8864C140.08 63.9773 139.705 61.4318 138.955 59.25C138.227 57.0682 137.17 55.3636 135.784 54.1364C134.398 52.9091 132.705 52.2955 130.705 52.2955C128.636 52.2955 126.886 52.9091 125.455 54.1364C124.045 55.3636 122.966 57.0682 122.216 59.25C121.489 61.4318 121.125 63.9773 121.125 66.8864C121.125 69.75 121.489 72.2727 122.216 74.4545C122.966 76.6364 124.045 78.3409 125.455 79.5682C126.886 80.7955 128.636 81.4091 130.705 81.4091ZM165.597 93V40.6364H181.79V50.1818H182.335C183.29 46.7273 184.847 44.1591 187.006 42.4773C189.165 40.7727 191.676 39.9205 194.54 39.9205C195.313 39.9205 196.108 39.9773 196.926 40.0909C197.744 40.1818 198.506 40.3295 199.21 40.5341V55.0227C198.415 54.75 197.369 54.5341 196.074 54.375C194.801 54.2159 193.665 54.1364 192.665 54.1364C190.688 54.1364 188.903 54.5795 187.312 55.4659C185.744 56.3295 184.506 57.5455 183.597 59.1136C182.71 60.6591 182.267 62.4773 182.267 64.5682V93H165.597ZM217.79 112.636C215.79 112.636 213.903 112.477 212.131 112.159C210.358 111.864 208.835 111.466 207.562 110.966L211.244 98.8636C212.881 99.4091 214.358 99.7273 215.676 99.8182C217.017 99.9091 218.165 99.6932 219.119 99.1705C220.097 98.6705 220.847 97.7727 221.369 96.4773L222.017 94.9091L203.403 40.6364H220.858L230.506 78H231.051L240.835 40.6364H258.392L238.653 98.0114C237.699 100.875 236.347 103.398 234.597 105.58C232.869 107.784 230.631 109.511 227.881 110.761C225.153 112.011 221.79 112.636 217.79 112.636ZM302.523 44.1136C302.295 41.6136 301.284 39.6705 299.489 38.2841C297.716 36.875 295.182 36.1705 291.886 36.1705C289.705 36.1705 287.886 36.4545 286.432 37.0227C284.977 37.5909 283.886 38.375 283.159 39.375C282.432 40.3523 282.057 41.4773 282.034 42.75C281.989 43.7955 282.193 44.7159 282.648 45.5114C283.125 46.3068 283.807 47.0114 284.693 47.625C285.602 48.2159 286.693 48.7386 287.966 49.1932C289.239 49.6477 290.67 50.0455 292.261 50.3864L298.261 51.75C301.716 52.5 304.761 53.5 307.398 54.75C310.057 56 312.284 57.4886 314.08 59.2159C315.898 60.9432 317.273 62.9318 318.205 65.1818C319.136 67.4318 319.614 69.9545 319.636 72.75C319.614 77.1591 318.5 80.9432 316.295 84.1023C314.091 87.2614 310.92 89.6818 306.784 91.3636C302.67 93.0455 297.705 93.8864 291.886 93.8864C286.045 93.8864 280.955 93.0114 276.614 91.2614C272.273 89.5114 268.898 86.8523 266.489 83.2841C264.08 79.7159 262.841 75.2045 262.773 69.75H278.932C279.068 72 279.67 73.875 280.739 75.375C281.807 76.875 283.273 78.0114 285.136 78.7841C287.023 79.5568 289.205 79.9432 291.682 79.9432C293.955 79.9432 295.886 79.6364 297.477 79.0227C299.091 78.4091 300.33 77.5568 301.193 76.4659C302.057 75.375 302.5 74.125 302.523 72.7159C302.5 71.3977 302.091 70.2727 301.295 69.3409C300.5 68.3864 299.273 67.5682 297.614 66.8864C295.977 66.1818 293.886 65.5341 291.341 64.9432L284.045 63.2386C278 61.8523 273.239 59.6136 269.761 56.5227C266.284 53.4091 264.557 49.2045 264.58 43.9091C264.557 39.5909 265.716 35.8068 268.057 32.5568C270.398 29.3068 273.636 26.7727 277.773 24.9545C281.909 23.1364 286.625 22.2273 291.92 22.2273C297.33 22.2273 302.023 23.1477 306 24.9886C310 26.8068 313.102 29.3636 315.307 32.6591C317.511 35.9545 318.636 39.7727 318.682 44.1136H302.523ZM352.602 93.9886C347.08 93.9886 342.341 92.8523 338.386 90.5795C334.455 88.3068 331.432 85.1477 329.318 81.1023C327.205 77.0341 326.148 72.3295 326.148 66.9886C326.148 61.625 327.205 56.9205 329.318 52.875C331.455 48.8068 334.489 45.6364 338.42 43.3636C342.375 41.0909 347.091 39.9545 352.568 39.9545C357.409 39.9545 361.625 40.8295 365.216 42.5795C368.83 44.3295 371.648 46.8068 373.67 50.0114C375.716 53.1932 376.795 56.9318 376.909 61.2273H361.33C361.011 58.5455 360.102 56.4432 358.602 54.9205C357.125 53.3977 355.193 52.6364 352.807 52.6364C350.875 52.6364 349.182 53.1818 347.727 54.2727C346.273 55.3409 345.136 56.9318 344.318 59.0455C343.523 61.1364 343.125 63.7273 343.125 66.8182C343.125 69.9091 343.523 72.5227 344.318 74.6591C345.136 76.7727 346.273 78.375 347.727 79.4659C349.182 80.5341 350.875 81.0682 352.807 81.0682C354.352 81.0682 355.716 80.7386 356.898 80.0795C358.102 79.4205 359.091 78.4545 359.864 77.1818C360.636 75.8864 361.125 74.3182 361.33 72.4773H376.909C376.75 76.7955 375.67 80.5682 373.67 83.7955C371.693 87.0227 368.909 89.5341 365.318 91.3295C361.75 93.1023 357.511 93.9886 352.602 93.9886ZM400.202 93.8864C396.861 93.8864 393.895 93.3295 391.304 92.2159C388.736 91.0795 386.702 89.375 385.202 87.1023C383.724 84.8068 382.986 81.9318 382.986 78.4773C382.986 75.5682 383.497 73.1136 384.52 71.1136C385.543 69.1136 386.952 67.4886 388.747 66.2386C390.543 64.9886 392.611 64.0455 394.952 63.4091C397.293 62.75 399.793 62.3068 402.452 62.0795C405.429 61.8068 407.827 61.5227 409.645 61.2273C411.463 60.9091 412.781 60.4659 413.599 59.8977C414.44 59.3068 414.861 58.4773 414.861 57.4091V57.2386C414.861 55.4886 414.259 54.1364 413.054 53.1818C411.849 52.2273 410.224 51.75 408.179 51.75C405.974 51.75 404.202 52.2273 402.861 53.1818C401.52 54.1364 400.668 55.4545 400.304 57.1364L384.929 56.5909C385.384 53.4091 386.554 50.5682 388.44 48.0682C390.349 45.5455 392.963 43.5682 396.281 42.1364C399.622 40.6818 403.634 39.9545 408.315 39.9545C411.656 39.9545 414.736 40.3523 417.554 41.1477C420.372 41.9205 422.827 43.0568 424.918 44.5568C427.009 46.0341 428.622 47.8523 429.759 50.0114C430.918 52.1705 431.497 54.6364 431.497 57.4091V93H415.815V85.7045H415.406C414.474 87.4773 413.281 88.9773 411.827 90.2045C410.395 91.4318 408.702 92.3523 406.747 92.9659C404.815 93.5795 402.634 93.8864 400.202 93.8864ZM405.349 82.9773C407.145 82.9773 408.759 82.6136 410.19 81.8864C411.645 81.1591 412.804 80.1591 413.668 78.8864C414.531 77.5909 414.963 76.0909 414.963 74.3864V69.4091C414.486 69.6591 413.906 69.8864 413.224 70.0909C412.565 70.2955 411.838 70.4886 411.043 70.6705C410.247 70.8523 409.429 71.0114 408.588 71.1477C407.747 71.2841 406.94 71.4091 406.168 71.5227C404.599 71.7727 403.259 72.1591 402.145 72.6818C401.054 73.2045 400.213 73.8864 399.622 74.7273C399.054 75.5455 398.77 76.5227 398.77 77.6591C398.77 79.3864 399.384 80.7045 400.611 81.6136C401.861 82.5227 403.44 82.9773 405.349 82.9773ZM441.69 112.636V40.6364H458.19V49.6023H458.702C459.384 48.0114 460.349 46.4773 461.599 45C462.872 43.5227 464.486 42.3182 466.44 41.3864C468.418 40.4318 470.781 39.9545 473.531 39.9545C477.168 39.9545 480.565 40.9091 483.724 42.8182C486.906 44.7273 489.474 47.6705 491.429 51.6477C493.384 55.625 494.361 60.6932 494.361 66.8523C494.361 72.7841 493.418 77.75 491.531 81.75C489.668 85.75 487.145 88.75 483.963 90.75C480.804 92.75 477.293 93.75 473.429 93.75C470.793 93.75 468.509 93.3182 466.577 92.4545C464.645 91.5909 463.02 90.4545 461.702 89.0455C460.406 87.6364 459.406 86.125 458.702 84.5114H458.361V112.636H441.69ZM458.02 66.8182C458.02 69.6364 458.395 72.0909 459.145 74.1818C459.918 76.2727 461.02 77.8977 462.452 79.0568C463.906 80.1932 465.645 80.7614 467.668 80.7614C469.713 80.7614 471.452 80.1932 472.884 79.0568C474.315 77.8977 475.395 76.2727 476.122 74.1818C476.872 72.0909 477.247 69.6364 477.247 66.8182C477.247 64 476.872 61.5568 476.122 59.4886C475.395 57.4205 474.315 55.8182 472.884 54.6818C471.474 53.5455 469.736 52.9773 467.668 52.9773C465.622 52.9773 463.884 53.5341 462.452 54.6477C461.02 55.7614 459.918 57.3523 459.145 59.4205C458.395 61.4886 458.02 63.9545 458.02 66.8182ZM527.574 93.9886C522.097 93.9886 517.369 92.9091 513.392 90.75C509.438 88.5682 506.392 85.4659 504.256 81.4432C502.142 77.3977 501.085 72.5909 501.085 67.0227C501.085 61.6136 502.153 56.8864 504.29 52.8409C506.426 48.7727 509.438 45.6136 513.324 43.3636C517.21 41.0909 521.79 39.9545 527.062 39.9545C530.79 39.9545 534.199 40.5341 537.29 41.6932C540.381 42.8523 543.051 44.5682 545.301 46.8409C547.551 49.1136 549.301 51.9205 550.551 55.2614C551.801 58.5795 552.426 62.3864 552.426 66.6818V70.8409H506.915V61.1591H536.915C536.892 59.3864 536.472 57.8068 535.653 56.4205C534.835 55.0341 533.71 53.9545 532.278 53.1818C530.869 52.3864 529.244 51.9886 527.403 51.9886C525.54 51.9886 523.869 52.4091 522.392 53.25C520.915 54.0682 519.744 55.1932 518.881 56.625C518.017 58.0341 517.563 59.6364 517.517 61.4318V71.2841C517.517 73.4205 517.938 75.2955 518.778 76.9091C519.619 78.5 520.812 79.7386 522.358 80.625C523.903 81.5114 525.744 81.9545 527.881 81.9545C529.358 81.9545 530.699 81.75 531.903 81.3409C533.108 80.9318 534.142 80.3295 535.006 79.5341C535.869 78.7386 536.517 77.7614 536.949 76.6023L552.256 77.0455C551.619 80.4773 550.222 83.4659 548.062 86.0114C545.926 88.5341 543.119 90.5 539.642 91.9091C536.165 93.2955 532.142 93.9886 527.574 93.9886Z" fill="black"/>
<ellipse cx="556" cy="13" rx="14" ry="13" fill="#FFB8B8"/>
</svg>
